<svg xmlns="http://www.w3.org/2000/svg" width="310" height="260" version="1">
  <path fill-rule="evenodd" d="M90.412 5.032c-13.449-.48-25.038 3.907-32.185 19.663l-25.805 65.14C13.62 95.06 5.436 108.828 5.002 120.123v85.292h24.795v28.702c-1.202 27.354 43.265 28.412 44.26-.285l.524-28.173h160.842l.525 28.173c.995 28.696 45.5 27.64 44.3.285v-28.702h24.754v-85.292c-.434-11.296-8.618-25.064-27.42-30.29l-25.804-65.139C244.63 8.94 233.04 4.551 219.593 5.032H90.407zm2.948 22.594c1.125-.006 2.31.033 3.513.082l116.663.366c10.678-.251 15.207 0 19.747 10.178l18.576 50.483-193.509-.244 18.374-49.14c2.866-9.836 8.764-11.681 16.638-11.725zm-40.625 86.391c11.565 0 20.958 9.43 20.958 21.09s-9.393 21.13-20.958 21.13c-11.566 0-20.96-9.47-20.96-21.13 0-11.66 9.394-21.09 20.96-21.09zm205.706 0c11.566 0 20.919 9.43 20.919 21.09s-9.353 21.13-20.919 21.13c-11.565 0-20.958-9.47-20.958-21.13s9.393-21.09 20.958-21.09zm-14.395-27.775za16.8 16.8 0 0 0-.41-2.044c-1.084-4.268-2.533-6.864-5.642-10.042-3.024-3.09-6.424-4.986-10.402-5.836-3.905-.834-40.127-.837-44.044 0-7.436 1.589-13.81 7.843-15.779 15.463-.083.321-.167 1.214-.235 2.37l76.512.089zm-38.255-55.187c-5.963.01-11.918 3.136-14.985 9.42-1.23 2.516-1.323 2.917-1.323 7.139 0 4.172.085 4.661 1.264 7.168 2.129 4.53 5.153 7.224 10.02 8.976 1.518.547 2.931.719 5.7.622 3.298-.115 3.977-.303 6.699-1.659 3.505-1.746 6.078-4.342 7.815-7.909 1.035-2.123 1.117-2.693 1.117-6.99 0-4.47-.054-4.78-1.322-7.377-3.063-6.273-9.023-9.4-14.985-9.39z"/>
</svg>
